<svg xmlns="http://www.w3.org/2000/svg" viewBox="0 0 271.68 210.64"><defs><style>.cls-1{fill:#fff;stroke:#000;stroke-miterlimit:10;stroke-width:2px;}</style></defs><title>Fichier 27</title><g id="Calque_2" data-name="Calque 2"><g id="Calque_1-2" data-name="Calque 1"><path class="cls-1" d="M115.43,200.05c9.59,3.2,19.12,3.63,30.8,3.63,37.43,0,67.77-18.7,67.77-41.76,0-10-5.71-19.16-15.21-26.34h0c6.5-5.62,10.37-12.47,10.37-19.89,0-19-24.93-34.3-55.67-34.3-.46,0-.9,0-1.35,0-9.5-9-25.93-15-44.64-15-21.71,0-40.35,8-48.64,19.5C25.59,91.33,1,109.92,1,132.09c0,12.2,7.48,23.29,19.7,31.72a26.3,26.3,0,0,0-.34,4.07c0,23.07,30.35,41.76,67.78,41.76C88.14,209.64,108.28,208.85,115.43,200.05Z"/><path class="cls-1" d="M111.46,122.08c5.41,1.58,10.79,1.79,17.38,1.79,21.13,0,38.25-9.22,38.25-20.59,0-4.93-3.22-9.45-8.58-13h0c3.67-2.77,5.85-6.15,5.85-9.81,0-9.35-14.07-16.92-31.42-16.92l-.76,0c-5.36-4.44-14.63-7.38-25.2-7.38-12.25,0-22.77,4-27.45,9.62C60.75,68.46,46.88,77.63,46.88,88.57c0,6,4.22,11.48,11.11,15.64a11.22,11.22,0,0,0-.19,2c0,11.38,17.13,20.6,38.25,20.6C96.05,126.82,107.42,126.43,111.46,122.08Z"/><path class="cls-1" d="M180.44,100.79c6.11,2.39,12.19,2.71,19.63,2.71,23.86,0,43.2-14,43.2-31.19,0-7.47-3.64-14.31-9.69-19.68h0c4.14-4.2,6.61-9.32,6.61-14.86,0-14.16-15.89-25.63-35.49-25.63-.29,0-.57,0-.86,0C197.79,5.45,187.32,1,175.39,1c-13.84,0-25.72,6-31,14.57-21.21,4-36.88,17.88-36.88,34.45,0,9.11,4.77,17.4,12.56,23.7a22,22,0,0,0-.22,3C119.84,94,139.18,108,163,108,163,108,175.88,107.37,180.44,100.79Z"/><path class="cls-1" d="M207.85,173.13c6.11,2.39,12.19,2.71,19.63,2.71,23.86,0,43.2-14,43.2-31.2,0-7.46-3.64-14.31-9.69-19.68h0c4.14-4.19,6.61-9.31,6.61-14.86,0-14.15-15.89-25.62-35.49-25.62-.29,0-.57,0-.86,0-6.05-6.72-16.52-11.17-28.45-11.17-13.84,0-25.72,6-31,14.56-21.21,4-36.88,17.89-36.88,34.46,0,9.11,4.77,17.4,12.56,23.7a21.86,21.86,0,0,0-.22,3c0,17.23,19.35,31.2,43.2,31.2C190.45,180.3,203.29,179.7,207.85,173.13Z"/></g></g></svg>